<svg id="Layer_1" data-name="Layer 1" xmlns="http://www.w3.org/2000/svg" xmlns:xlink="http://www.w3.org/1999/xlink" viewBox="0 0 288 288"><defs><mask id="mask" x="-45.63" y="-0.82" width="375.22" height="289.59" maskUnits="userSpaceOnUse"><rect x="-23.52" y="41.59" width="330.99" height="204.77" transform="translate(-34.76 45.74) rotate(-16.33)" fill="#fff"/><path d="M169.35,167.67h0l-1.11.31a.16.16,0,0,1,0,0h0a.16.16,0,0,1,0,0l2.14.2h0a1.28,1.28,0,0,0,.09-.64h0a.4.4,0,0,0,0-.15l-1.1.31Z"/><path d="M177.69,153.39h0l-1.08,0h0l-.08,0,.22.76h0l-.24-.76.39,1.55.08,0-.24-.77h0l.23.77a2.57,2.57,0,0,0,1.8-1.48l-1.09,0Z"/><path d="M104.74,185.9h0l-.36,0-.7-.09a1.34,1.34,0,0,1-.11.14l-.12.17-.11.16h0l2,.41h0a.71.71,0,0,1,.1-.14,2.39,2.39,0,0,0,.31-.47l0-.05-1.06-.1Z"/><path d="M198.91,205.49l1.08-.38a1.73,1.73,0,0,0-1.42-1l-.88,1.62h0s.07,0,.11.12h0l1.09-.38Z"/><path d="M83.37,149.23l.6.6a2.12,2.12,0,0,0,.82-.84h0a1.61,1.61,0,0,0,.15-.92l0-.08,0-.08a1.53,1.53,0,0,0-.49-.6,1.28,1.28,0,0,0-.25-.15h0l-1.48,1.44,0,0s0,.05,0,.05h0l0,0,0,.05h0l.07,0,.55.53h0Z"/><path d="M177.61,211.45l.32.74a2.22,2.22,0,0,0,1.55-1.73v-.14a1.49,1.49,0,0,0-.72-1.12l-1.62,1.36h0s0,0,0,0a.2.2,0,0,1,.07.13.67.67,0,0,1,0,.07h0l0,0v0h.08l.29.68Z"/><polygon points="152.15 184.9 152.16 184.89 152.16 184.89 152.82 184.14 152.81 184.14 152.81 184.14 152.04 183.85 150.72 185.36 151.06 185.49 151.06 185.49 151.5 185.65 152.15 184.9 152.15 184.9"/><path d="M185.39,74h0l-1,.52a1.83,1.83,0,0,0,.72.53h0a3,3,0,0,0,1.71.08l.12,0h0c.3-.09,1.11-.33,3.65-2.85l-.85-.4h0l-.86-.4a19.7,19.7,0,0,1-2.41,2.11.25.25,0,0,1-.11-.09l-1,.52Z"/><path d="M227.56,40.54l-.13.81h0l.2,0h0l.06-.81h0l0,.81,1.34-.11,0-1V40h0a1.53,1.53,0,0,0,0-.3h0l-1,.23h0l1-.25-1,.23,0-.21h0l-.25,0h-.08l0,.26-.87.2.87-.19h0l-.86.19a1.92,1.92,0,0,1,0,.34v.13h0Z"/><path d="M75.46,108.09h0c.34-.24.66-.5,1-.76A10,10,0,0,0,77.65,106l.17-.25-1-.25h0l-1-.25-.14.18A7.28,7.28,0,0,1,74.08,107l1.38,1.08Z"/><path d="M241.1,173.37a1.71,1.71,0,0,0,.11.14,2.11,2.11,0,0,0,1.48.66l.62-1.65h0l-.06,0a.61.61,0,0,1-.13-.14l-2,1Z"/><path d="M209.86,90.11s0,0,0,0a1.94,1.94,0,0,0,.24-.27h0l-1.9-.58h0l-.1.11a2.31,2.31,0,0,0-.36.47l2,.39A.43.43,0,0,1,209.86,90.11Z"/><path d="M215.61,92.93l1-.56h0l1-.56h0l-.09-.13a1.79,1.79,0,0,0-.41-.43h-.31a1.29,1.29,0,0,0-.31-.07l-.39.82h0l-.39.82a.77.77,0,0,1-.33-.12.64.64,0,0,1,.1.13Z"/><path d="M200.69,79.48a1.59,1.59,0,0,1,.31.14l.19.1h0l1.48-1.44h0l-.15-.07A3.51,3.51,0,0,0,202,78h0l-.14,0-1.16,1.56h0Z"/><path d="M140.92,159.16l.11,0,0,.15.24-.09-.09-.13,1.69-.55c-.25-.69-1.08-1-2.13-.79l-.2,0-.19.09.37.54Z"/><path d="M269.39,205.33l.09-.06.29.32-.55.22a.13.13,0,0,1,0-.07v0a1.3,1.3,0,0,0,0,.21h0l.72-.21.1.1h0l.59.61a2.62,2.62,0,0,0,.36-.26l.58-.4-.14-.47v-.05a.78.78,0,0,0,0-.14h0a.67.67,0,0,0-.07-.18l-1.06.42h0l-.2.08-.44-.34h0l-.21.16,0,0Z"/><path d="M82.09,186.17h0l.17.15.81-.57.1.14h0l.14-.06-.12-.17.86-.59,0,0h0a2.89,2.89,0,0,1-.24-.25l-.1-.11h0l-.83.48-.47-.65-1.26.61.73.78Z"/><path d="M91.81,211.76h0a1,1,0,0,1-.08.14,1.8,1.8,0,0,0-.25.52l2.19,0,.06-.1,0,0a2.28,2.28,0,0,0,.17-.3h0Z"/><path d="M175.94,73.43l.6-.75-.16-.27,0-.19-.08,0-.12-.12-.28.2-.84.15-.15-.34-.07,0,.16.34-.32.06-.3-.11-.08.09h-.05l-.07.12h0v.06l-1.05,1.76,2.45-.88Z"/><path d="M241.69,105.48l-.06.31h0l.28.18.17-.1.33-.2h0l-.39-.32.21-.09h0l1.07-.4a.87.87,0,0,0-.31-.35h0a1.93,1.93,0,0,0-1.11-.23l-.44,0-.37.24-.15.09a3.44,3.44,0,0,0-.53.35l.95.62Z"/><path d="M283.62,152.21c.19,0,.62-.05,1,.58a.81.81,0,0,1,0,.44v0h0l2.06.34a1.89,1.89,0,0,0,.13-1.53l0-.1a2.68,2.68,0,0,0-1.8-1.34h0a3.7,3.7,0,0,0-1.22-.05l-.06.82h0l-.06.82Z"/><path d="M168.73,178.14s0,0,0,.05h0l2.19-.69a1.45,1.45,0,0,0-.51-.72L168.66,178l0,0Z"/><polygon points="17.85 152.83 18.36 152.2 18.73 151.16 16.67 151.21 16.55 151.76 16.55 151.76 16.5 151.98 16.23 151.97 16.5 151.98 16.3 152.87 17.85 152.83"/><path d="M90.2,248.53h0l-.12.13a2.82,2.82,0,0,0-.37.5l2.06.34h0l0,0,.09-.11,0,0,.22-.27h0Z"/><path d="M243.47,173.93h0l.06-.08,0,0,1.49,1,.07-.06,0,0a1.47,1.47,0,0,0,.44-1.76h0l-1.08.39h0l-1.08.39a.33.33,0,0,1,0,.18Z"/><polygon points="277.82 206.65 276.98 206.57 277.08 206.45 276.98 206.57 276.75 206.55 276.75 206.55 276.75 206.55 275.68 206.45 275.12 207.75 277.06 208.39 277.82 206.65"/><path d="M67.85,170.85h0l-.34-.73a2,2,0,0,0-1.35,1.59l2-.17Z"/><path d="M206.74,208.66h0l.36.39,0,0h0l.27-.1h0l-.24-.4,1.36-.31,0-.1h0s0,0,0-.06h0a.81.81,0,0,0-.19-.28h0a1.59,1.59,0,0,0-.89-.35l-.44,0-.4.17-.12,0h0l-.12,0h0l-.18.09.73.85Z"/><path d="M43,214.5h0a.6.6,0,0,1,.09-.15c0-.09.1-.18.14-.27l-2.11-.26h0l-.08.13a3.07,3.07,0,0,0-.16.31h0Z"/><path d="M282.59,120.14h0a.75.75,0,0,0,.18-.07,2,2,0,0,0,1.17-1.27h0l0-.15h0l-2,.1h0Z"/><path d="M27.7,156.62v-.15a1.59,1.59,0,0,0-.43-.88,1.4,1.4,0,0,0-.44-.31l-.08,0-.69.75.66-.76-1.18,1.31-.18.18h0s0,0,0,0a.29.29,0,0,1,.08.17.46.46,0,0,1-.07.19h0l1.78.74A2.1,2.1,0,0,0,27.7,156.62Z"/><path d="M171.05,131.77l0,.07a.55.55,0,0,1-.17.11l1,1.32h0l.09-.05h0a2.59,2.59,0,0,0,1.29-1.31l-1.08-.07,1.08.07a1.73,1.73,0,0,0,.11-.49l-2.24.24Z"/><path d="M82.58,172.34h0s0,0,0,0h0a1.73,1.73,0,0,0-.21-.17h0a2.25,2.25,0,0,0-.68-.26l-1,1.61h0c.06,0,.2.11.35.56a1.2,1.2,0,0,1,0,.5h0l1,.24,1,.2.12-.21h0a2.68,2.68,0,0,0,.14-.43h0a3.27,3.27,0,0,0,0-.76v-.07l0-.07A2.4,2.4,0,0,0,82.58,172.34Z"/><path d="M176.64,196.27h0a1,1,0,0,1-.15.11l-.05,0-.18.13-.1.08,1.54,1h0l.16-.12a3.09,3.09,0,0,0,.43-.33h0l.09-.09h0l-1.74-.77Z"/><path d="M167.71,182.55l0,.8-.06-.79-.14,0-.13,0,.2.76-.24-.75.23.76h0l.14.49h0l0,.28V184h0v0h0l.05.18,0-.11,0,.1-.05-.2v-.09l1.31-1.09A1.89,1.89,0,0,0,167.71,182.55Z"/><path d="M189.59,199.81a1.74,1.74,0,0,0-.4-.34l-1.63,1.36.11.11a2.84,2.84,0,0,0,.26.24h0l0,0,.09.38h0l.19.77.07,0a2.36,2.36,0,0,0,1.42-1,1.75,1.75,0,0,0,.22-.91v-.26l-.23-.18Z"/><path d="M189.51,222.64h0l-.16.1c-.13.09-.29.18-.44.3h0l-.1.08h0l1.61.9.17-.11a3.17,3.17,0,0,0,.36-.23h0Z"/><path d="M273.17,207.61h-.26c-.17,0-.36,0-.57,0l0,.5-.12,0-.26.32.09.32.3-.09,0,.61.38,0,1.83,0-.23-.8.71-.87-1.73,0Z"/><path d="M228.84,132.33h0a1.8,1.8,0,0,0,.35-1v-.13a1.92,1.92,0,0,0-1.78-1.5h0l-.83,1.63h.08a.44.44,0,0,1,.32.35c0,.1-.05.15,0,.15l.22.77h0l-.23-.77.21.77h0l.2.77h0l-.22-.76h0l.25.75h0a2.75,2.75,0,0,0,1.47-1Z"/><path d="M259.79,145.44h0l0-.05,0,0h0a.35.35,0,0,1,.15-.07h0l0,.26-.23.07.23-.07.22,1.32.11,0,.06,0h0a2.08,2.08,0,0,0,1.58-1.6l0-.13L260.58,140l-.77,5.34S259.8,145.44,259.79,145.44Z"/><path d="M259.87,174l-.17,0,.28,1.57c.24,0,.26,0,.31.08l2.12-.85A2.25,2.25,0,0,0,259.87,174Z"/><path d="M226.44,80.57l.11-.11.19-.23a1.17,1.17,0,0,0,.16-.25l-1-.17.22-.28-.22.28-1-.18.82.26-.82-.26h0l-.1.1-.23.27-.56.75,1.88.63Z"/><path d="M231.61,82h-.24L226,83.55l5.09.09a.2.2,0,0,1-.09,0h.11l.42-.07v0l1.69-.28C233.24,82.46,232.62,82,231.61,82Z"/><path d="M253.23,196.1h0c-.36-.63-1.31-.85-2.41-.48l-.22.07-.26.19,0,0a2.51,2.51,0,0,0-.24.19l1.22.67.06.13.12,0,.23.13h0s0,0,0,0a.08.08,0,0,1,0,0l-.16-.12h0l.15.11-.05,0,.06,0-.15-.12,1.66-.58h0A.34.34,0,0,0,253.23,196.1Z"/><path d="M257,173.67h0l-.22.47-1.2-.24,0,0a1.49,1.49,0,0,0-.11.28,1.05,1.05,0,0,0,.11.71l.18.33,1.41.16.75-1.65-.9-.1Z"/><path d="M114.09,134a1.74,1.74,0,0,0-1.44-.53l-.16.83.1-.82-.13.83h0l.13-.83a3.47,3.47,0,0,0-.62.1l-.06,0,.21.77-.24-.76.24.77h0l-.23-.77-.2.06.33.73h0l.33.71v0l-.13,0-.07,0h0a.91.91,0,0,1,.18.29.27.27,0,0,1,0,.11h0a.17.17,0,0,1,0-.06l0,0h0l.15,0,1.5.83h0a1.59,1.59,0,0,0,.41-.56h0a1.69,1.69,0,0,0,.14-.79v-.11l0-.1A2.66,2.66,0,0,0,114.09,134Z"/><path d="M81.11,124.87v0h0L81,125l-.05.08a.91.91,0,0,0-.08.13l0,.09,2.08.31h0l.08-.12h0a1.6,1.6,0,0,0,.3-.63.17.17,0,0,0,0-.07l-2.24.21A.17.17,0,0,1,81.11,124.87Z"/><path d="M119.33,169.75l.48,2.82a.82.82,0,0,1,0,.1h0l0,0s0,0,.05,0l0,0,.21.27.78,1h0l.18-.1a1.73,1.73,0,0,0,1-1.74v0l-.06-.21Z"/><path d="M103,140.1a2.63,2.63,0,0,0-.34-.18l-.13,0h0l-1,1.22h0l0,0-.08,0h0l-.22.28.14.07.33.17h0l.17-.18.78.84a1.59,1.59,0,0,0,.86-1.67l-.06-.33-.37-.15Z"/><path d="M152.55,123.85h0s0,0,0,0l-.74.72h0l-.09.08-.32-.39h0a1.35,1.35,0,0,0-.26.15h0l-.05,0h0l.08,0h0l.29.49-.2.2.27-.08.05.09h0l.42.69.16-.08h0l.16-.09h0l.08-.06.78-.4-.17-.57v0a.82.82,0,0,0-.42-.68Z"/><path d="M165.5,191.3h0l-.38-.11.13-.13h0a1,1,0,0,1-.17.1l-.26.13h-.32l-1.09,0,0,.08s0,0,0,0a1,1,0,0,0,.64,1.2h0a2.55,2.55,0,0,0,1.07.21h.47l.39-.25a1.51,1.51,0,0,1,.17-.1,2.59,2.59,0,0,0,.85-.61Z"/><path d="M140.88,226.21l-.54.7.52-.71a2.41,2.41,0,0,0-.67-.09l-.37,1.45-.15.2a.21.21,0,0,1,.17.23h0l0,0a.05.05,0,0,0,0,0h0l.08,0,1.25,1.08.1-.07a1.68,1.68,0,0,0,.28-.24h0A1.64,1.64,0,0,0,142,228h0a1.47,1.47,0,0,0,0-.88l-.08-.15A2,2,0,0,0,140.88,226.21Z"/><path d="M132.82,176.75a.9.9,0,0,1,0,.16h0l2.25-.37a2,2,0,0,0,0-.34.31.31,0,0,0,0-.08h0l-2.22.58Z"/><path d="M155.14,190.58h0l-.13-.09-.25-.17h0l-.23-.11-1.38,1.48a.94.94,0,0,1,.12.09l.22.16.06,0h0l.79-.69h0l.8-.69Z"/><path d="M122.19,153h0a0,0,0,0,1,0,0h0a2.09,2.09,0,0,0-1.35-.44l-.24.83h0l-.24.83c.12.05.24.37.31.59a.59.59,0,0,1-.06.41h0l1.22,1.19.08,0a2.07,2.07,0,0,0,1-2.06v-.08l0-.06A2.62,2.62,0,0,0,122.19,153Z"/><path d="M154.32,233.17h-.82a5.45,5.45,0,0,0-.88,0l-.05.81h0v.32h.16l-.17.07,0,.43a3.81,3.81,0,0,1,.48,0h.26l.14-.52,1.25,0h0s0,0,0,0h0a1.06,1.06,0,0,0-.13-.67Z"/><path d="M150.47,194.48h0l-.15-.08-.21-.12h0l-.25-.1,0,0-.59.78.54-.79-.8,1.12-.36.44a.67.67,0,0,1,.12.06l0,0,.09.05.25.12.7-.74h0l.69-.74Z"/><path d="M190.62,161.37h0a2.66,2.66,0,0,0-1.28-.15l-.57,0-.38.37-.15.12-.29.25h0l-.17.18h0s0,0,0,0l1.41.48v0h.06l.39.14s.1-.08.15-.13l.1-.08.39,0h0l1.12-.12a1.61,1.61,0,0,0,0-.22s0-.06,0-.08v0h0a1.11,1.11,0,0,0-.72-.79Z"/><path d="M185.34,110.06h0l-.05,0h0a.23.23,0,0,1-.14-.13h0l.1,0h0l.32-.06.05.18-.05-.18,1.83-.32a.13.13,0,0,0,0-.06.28.28,0,0,0,0-.09c-.13-.66-.85-1-1.87-.94h-.18l-7.49,2.2,7.45-.56Z"/><path d="M181.53,81.37l-.93-.32.93.32.11-.15.11-.16h0c.05-.1.09-.21.13-.31l-2.08-.09-.05,0,0,0h0l0,0,0,0h0l.06,0h0l.05,0-.09,0,0,0,.18.06,1,1.09a2.67,2.67,0,0,0,.59-.46Z"/><path d="M221.82,225.16c0,.05,0,.1-.08.14a3.29,3.29,0,0,0-.17.39l.68,0-.26.19.26-.19,1.48.09h0l.1-.19c0-.07.07-.13.1-.2l.22-.46-1.64-1.27Z"/><path d="M221,219.92l.29.52h0l.4.7h0L222,221a1.42,1.42,0,0,0,.85-1.54h0v0h0l-1.77.48Z"/><path d="M204.89,94.24h0l-.09.13a2.45,2.45,0,0,0-.27.43h0a1,1,0,0,0-.08.31h0l2.25-.23a.64.64,0,0,1,0,.14h0a1,1,0,0,1,.09-.13c.07-.1.15-.21.2-.3h0Z"/><path d="M237,186.55l0,1a.76.76,0,0,1,0,.15,1.9,1.9,0,0,0,0,.57v0l.88-.23h0l-.88.23v0l.85-.24,0,.15.06-.15.25-.07h0l1.1-.31-1.11.29h0l1.11-.3v0h0a1.75,1.75,0,0,1,0-.23,1.23,1.23,0,0,1,0-.19v-.56l-.72-.11Z"/><path d="M179.06,59.47l2,.52,0-.07a2.61,2.61,0,0,0,.45-1.19h0a2.37,2.37,0,0,0-.14-1.14c-.62-1.83-3.85-3.19-6.78-3.73l-.93,1.62c2.78.51,5.15,1.71,5.52,2.82a1.2,1.2,0,0,1-.1,1.15Z"/><path d="M211.31,90.12l-.17,1.4,0,0,0,.11v.11h0l.17.55.3.74,0,0h0l.34-.13h0a2.65,2.65,0,0,0,1.29-1.22l.08-.16v-.16C213.4,90.82,213.11,90,211.31,90.12Z"/><path d="M159.74,134.36l-.05,0,.05,0-.93.59h0l.93-.59-.83.53.82-.54-.93.6h0l.93-.6-.8.51.79-.51,0,0,0,0-.93.6h0l.93-.61-.83.54.82-.55-.92.61.91-.62-.92.62h0l.91-.62-.91.62h0l.91-.62-.81.56.79-.55h0l-.91.62h0l.91-.62a2.29,2.29,0,0,0-2.11-.28l-.28.09-.16.07-.15.09a1.75,1.75,0,0,0-1,1.47l2-.31,0,0-.11.07h0l.1-.07h0l.08-.05h0l-.1.07,0,0h0l.09-.05h0l-.19.12h0l.1-.07,0,0,0,0h0l.11-.07h0l-.11.07h0l-.07,0,.07,0h0l.11-.07h0l.15,0v0a.08.08,0,0,1,0,.05h0a.22.22,0,0,1,.07-.06h0l-.08-.06h0l.61-.37.92-.6-.93.58Z"/><path d="M212.87,215.59l-2.22.56c0,.09,0,.14,0,.14h0l.05-.08,0,0,1.63.88a1.51,1.51,0,0,0,.54-1.19,2.51,2.51,0,0,0,0-.27h0Z"/><path d="M57.87,190.72l-.1.06-.06.05-.11.06.6.6-.6-.6-.4.26,0,0h0l1.46,1h0l.14-.08.07,0,.24-.15.16-.11-1-.63Z"/><path d="M86.38,179.54l-.16,0h0l-.06,0-.06-.15,0,.15h0l0-.15v0l0,.16-.81.19h0l-1.11.28h0c.14.68.9,1.06,1.92,1l.23,0,.22-.05h0v0l-.21-.74h0l.23.77.17-.06-.49-1.19v-.15Z"/><path d="M96.46,202.09l.44.69h0l.35.55-.16.09.06,0-.06,0,.16-.09h0l.82-.45,1-.56A2.29,2.29,0,0,0,96.46,202.09Z"/><path d="M74.07,164.16l-.42,1.66h.06a.75.75,0,0,1,.41.34.66.66,0,0,1,0,.23h0l2,.42a1.71,1.71,0,0,0,.21-1.3l0-.1,0-.08A2.37,2.37,0,0,0,74.07,164.16Z"/><path d="M73.27,129.13H73.2l-.62.8-.31-.08h0l-.22.32h0l.29.07-.67.7h.07c.19.08.39.13.56.19l1.14.35,1.32-1.91Z"/><path d="M109.45,154.11l-3.09-3.18.92,3.93a.24.24,0,0,1,0,.11h0a.36.36,0,0,1,.1-.14h0l0,0,.22.2-.24.14.24-.14.42.37h0l.65.57.21-.15a1.48,1.48,0,0,0,.55-1.51h0s0,0,0,0Z"/><path d="M82.23,121.83a2.52,2.52,0,0,0-.32-.14h0a1.66,1.66,0,0,0-.55-.12l-.32.82h0l-.16.42h0v0l0,0,0,0h0l-.14.37h-.14l.16.08.35.16h0l0,0,.32.9.18-.06.17-.08h0a1.79,1.79,0,0,0,1-1h0a1.7,1.7,0,0,0,.07-.68l0-.37-.43-.15Z"/><path d="M49.08,155.59h0s0,0,0-.08h0l-1.92.79h0l1.09,1.21h0a2.23,2.23,0,0,0,.3-.2,1.38,1.38,0,0,0,.58-1.7Z"/><path d="M136.38,147.89a.19.19,0,0,1-.07-.08l-2.12.86a1.67,1.67,0,0,0,1.17.82l1-1.6Z"/><path d="M70.32,183.86s.1.06.22.35l1.09-.36h0l1.08-.37a1.79,1.79,0,0,0-1.21-1.18Z"/><path d="M111,110.54l-.42.21-.16.35a1.09,1.09,0,0,1-.08.15l-.14.25h0l-.09.22v0l1.5,0h.69l.08-.15a1.59,1.59,0,0,0,.17-.31h0l-.53-.06.76-.93A2.44,2.44,0,0,0,111,110.54Z"/><path d="M133.91,167.47l-1.09.35h0l-1.1.34a.43.43,0,0,1,0,.12h0a.18.18,0,0,1,0-.07l0,0,1.29,1.14a1.56,1.56,0,0,0,.79-1.85Z"/><path d="M123.22,192.53l-.09,0-.62.77h0l.62-.77-.14,0h0a2,2,0,0,0-.85,0l-.09,0-.33.12.56,1h0v0l-.39.48.28-.32.1-.12h0l0,0v.07l.13.39,0-.21,0-.11,0,.11,0-.08.15.26-.19-.46Z"/><path d="M23.32,126.52a2.75,2.75,0,0,0-2-.14l.2.77h0l.21.77a.24.24,0,0,1,.1,0l1.62-1.36h0Z"/><path d="M150.47,101.66c-.05,0-.08,0-.07,0a0,0,0,0,1,0,0l-.32.11.32-.13-.33.07-1.91.43a.9.9,0,0,0,.08.28,1.83,1.83,0,0,0,1.88.88h.2l6.4-1.87Z"/><path d="M57.15,157.13l-.23-.18L54,156l1.07,2.11c0-.1.11-.26.23-.32l.39,1.54.06,0,.07,0,.31-.11a2.17,2.17,0,0,0,1-.74,1.11,1.11,0,0,0,.1-1.2Z"/><polygon points="48.79 148.28 48.79 148.28 48.18 147.81 48.18 147.81 48.18 147.81 46.42 149.08 47.04 149.55 47.92 148.91 47.92 148.91 47.92 148.91 47.92 148.91 48.8 148.28 48.79 148.28"/><path d="M66.62,150.66a2.89,2.89,0,0,0-.5-.33h0l-.06,0h0l-.37.36v0l-.26.08-.21.15.15.12-.77.75a1.94,1.94,0,0,1,.3.2l.85.62.65-.47,1.6-.47-1.23-.86Z"/><path d="M142.27,188l.18-.22-.18.22-1.47.21h0a0,0,0,0,0,0,0v0l0,.09a2.56,2.56,0,0,0,0,.27l-.06.41.41.22,1.71.58.18-1.37,0-.15,0-.11s0,0,0-.07a1.13,1.13,0,0,0,0-.25l-.59.08Z"/><path d="M97,212.45l0,0h0l-1-1.3a4,4,0,0,1-1.46.33l-6.47.47,5.6,1.11.43.25.56-.17h0l.22-.07a6.53,6.53,0,0,0,1.17-.24,4.52,4.52,0,0,0,.92-.35Z"/><path d="M105.9,253.83a1.44,1.44,0,0,0-.39-.52h-.11s0,0,0,0h-.06l0,0h-.16l-.62.77h0l-.4.51H104l.09,0h0l-.08,0h0l.09,0-.19.24h0a.43.43,0,0,1-.15-.1h0a.83.83,0,0,1,.07.13,2.54,2.54,0,0,0,.16.28h0l.72-.35.18.06h0l1,.3a1.72,1.72,0,0,0,.25-.43l.12-.32L106,254A.83.83,0,0,1,105.9,253.83Z"/><path d="M102.58,246.36h0a.39.39,0,0,1,.07.16.24.24,0,0,1,0,.07h0l0,0h.09l.16.73h0l.17.78.1,0,.37-.13h0a2.35,2.35,0,0,0,.68-.44h0a1.86,1.86,0,0,0,.59-1.21v-.12a1.42,1.42,0,0,0-.7-1.09Z"/><path d="M257.45,157l-1.3,1.52h0l.06.05c0,.09,0,.2-.09.23l-.06,0,.5,1.51a2.61,2.61,0,0,0,.37-.14,2.08,2.08,0,0,0,1.49-2.28l0-.08,0-.07A1.66,1.66,0,0,0,257.45,157Z"/><path d="M148.12,115.86h0a1.68,1.68,0,0,0-.57-.27h-.05l-.27,0-.87,1.62s.16,0,.29.55a.77.77,0,0,1,0,.45l0,0,.75.5a0,0,0,0,0,0,0,0,0,0,0,1,0,0l.74.5a2,2,0,0,0,.71-1,2.25,2.25,0,0,0,.06-.91v-.07a2.08,2.08,0,0,0-.74-1.25Z"/><path d="M156.53,212l-4.27-6.49,2.13,7.29.08.15a2.48,2.48,0,0,0,2.54,1h.38s0,0,0,0h0l-.29-1.57C157,212.35,156.8,212.4,156.53,212Z"/><path d="M182.33,182.54a1.37,1.37,0,0,0,.41-1.36h0l0-.08h0l-1,.3,1-.31-2.08.66h0Z"/><path d="M167.86,171.77l.69,1.34h0l1.51-1.38A2.64,2.64,0,0,0,167.86,171.77Z"/><path d="M184.46,64.09h0l0,0h0l0,0h0l0,0-.18,0-1.22-1-.25.19.78.47-.79-.47-.09.09-.14.15.9.35-.92-.34,0,.07a1.43,1.43,0,0,0-.28.53h1.93Z"/><path d="M148,84.91l.53-.14a7.89,7.89,0,0,0,2.36-1.06h0a2.81,2.81,0,0,0,1-1.25l-1.08-.08,1.09.07-1.09-.07h0l1.09.07,0-.07-1.08,0,1.08,0-2.18-.07,1.06,0-1.06,0v0l1.07.06h0l-1.07-.07a.81.81,0,0,1-.18.26h0a4,4,0,0,1-1.51.67l-.49.14-.19.05a10.91,10.91,0,0,1-1.31.33h0a1.11,1.11,0,0,1-.31,0L145,85.42h.06a2.29,2.29,0,0,0,.37,0h.11a9.8,9.8,0,0,0,2.24-.47Z"/><path d="M93.94,82.66l.18-.07.44-.19-.77-1V81.2l.1,0-.1,0h0l-.14,0-.09-.14h0l-.1.05h0l.06.12-.71.16h0l-1.11.27a.17.17,0,0,0,0,.07c.17.7,1,1,2.07.91Z"/><path d="M288,76.74h0l-1.1.33,1.09-.31-1.08.32s0,0,0,.08a1,1,0,0,1-.05.22h0s0,0,0,0l0,0,.83.42.86.4a1.85,1.85,0,0,0,.43-.64h0a2.85,2.85,0,0,0,.13-.56v-.11a1.25,1.25,0,0,0-.06-.4l-1.1.32,1.09-.35Z"/><path d="M133.34,205l-.71,1.64.1,0a2.47,2.47,0,0,1,2.08,1.81,2.4,2.4,0,0,1,0,1.48c0,.08-.05.16-.07.25h0l2.18.07a3.78,3.78,0,0,0,.09-2.47A4,4,0,0,0,133.34,205Z"/><path d="M206.2,212.91h0a1,1,0,0,0,.14-.69h0a.08.08,0,0,0,0,0h0v0a.58.58,0,0,0-.06-.15l-1.07.42,1.06-.43-1.06.43h0l-.46.18h0l-.21.08h0l-.13,0-.26.1.41-.16.22-.06,1.43.3Z"/><polygon points="187.25 227.67 188.34 227.37 188.41 228.11 188.48 228.1 188.35 227.36 188.49 227.32 189.4 227.42 189.99 226.11 186.99 226.82 187.25 227.67"/><path d="M158.4,73.43l-.08.08h0a.1.1,0,0,1,0,.06l-.49.07.28-.28h0l-1.07-1h0a1.87,1.87,0,0,0-.49.41h0a2,2,0,0,0-.45,1v.11a1,1,0,0,0,.62.9l1.07-1.12.55,0h0a1,1,0,0,1,.07-.25h0Z"/><path d="M171.67,161h-.18a6.09,6.09,0,0,0-.8-.06l-.4,1.66h.13l.29,0h0l.2,0h0l.74-1.64Z"/><path d="M73.23,145.28h-.11a2.29,2.29,0,0,0-.37,0h0l-.49,0-.17,0-.28.1-.6.23h0l-.26.14L72.09,147h0c.05,0,.17-.06.26-.1h.14l0,0h0Z"/><path d="M111.3,226.1l-.93.57.92-.57-.94.58h0l.94-.59a1.29,1.29,0,0,0-.3-.22h0a2.45,2.45,0,0,0-2.18-.05l-.2.07-.15.11a1.83,1.83,0,0,0-.93,1.38h0a1,1,0,0,0,0,.29l1.11-.3h0l.81-.22,0,.06,0,0h-.06l0,0h0l.24-.15h0l-.19.12h0l.23-.14h0s0,.05,0,.07h0l.08-.06h0l0,0h0l.59-.35Z"/><path d="M246.94,144.37a3.11,3.11,0,0,0-1.35-.94h0a3.46,3.46,0,0,0-2.09,0h0c-.18.05-.37.12-.55.19l.39.71h0l.39.7.22-.07c.18-.06.49-.11,1,.41a.23.23,0,0,1,0,.14h0l2,.43h0a1.4,1.4,0,0,0,.09-.17h0a1.51,1.51,0,0,0,0-1.18l0-.1Z"/><path d="M82.17,95.75l1.89.61h0l.09-.12a4.34,4.34,0,0,0,.62-1.2l-2.17-.12A2.87,2.87,0,0,1,82.17,95.75Z"/><path d="M120.67,228.89h0l-.08.13a2,2,0,0,0-.23.46l2.18.08,0-.06h0l0-.06a3.37,3.37,0,0,0,.17-.32h0Z"/><path d="M89.9,187a1.8,1.8,0,0,0,.19.2h0l.07.06h0l.86-.65h0l.87-.66-1.09.38h0l-1.09.37A1.49,1.49,0,0,0,89.9,187Z"/><path d="M140.87,198.92h0a.18.18,0,0,1,.09,0l0,0h0l-.28.09,0-.13,0,.13-.81.28h0l-1.09.37a.2.2,0,0,1,0,.08,1.88,1.88,0,0,0,2,.73l.14,0,9.07-2.66-9.1,1Z"/><path d="M84,130.11h0l-.13.1-.22.16-.11.08h0l1.58.93h0l.13-.1a4.43,4.43,0,0,0,.45-.36h0l.06-.06h0l-1.81-.71Z"/><path d="M79.22,107.81h0l-.47.45A8.93,8.93,0,0,1,76.53,110c-.53.15-2-1.07-2.83-1.8l-.23-.2-7.8-3,6.1,4.34.1.09c1.84,1.55,3.16,2.67,5.1,2.11,1.24-.37,2.36-1.38,3.93-2.89Z"/><path d="M62.9,170.29l-.16,0c-.2-.06-.42-.12-.67-.17H62l-.87,1.63c.14,0,.3.07.48.11l.18.06h0l.57-.79h0l.56-.78Z"/><path d="M237.82,219.81h0a2.46,2.46,0,0,1,0-.26l0-.15h0l-.72.07.23-.81H237l-1.33.05-.1,1,0,.27h0a1.5,1.5,0,0,0,0,.3l1-.19,0,.2h.33l.07-.24.86-.15A.17.17,0,0,1,237.82,219.81Z"/><path d="M203,144.42l.15-.07,0-.06-.11.06h0l.12-.06a1.25,1.25,0,0,0-.64-.42h-.1a1.39,1.39,0,0,0-.41,0,2.49,2.49,0,0,0-1.23.34l-.57.3,0,.47a.59.59,0,0,1,0,.13,1.55,1.55,0,0,0,0,.49v0l1-.23h0l.21.09a.38.38,0,0,1-.17-.1l.3-.06-.11.17h0l.11-.17.19,0,.16.18-.06,0a.65.65,0,0,1-.28,0h-.1a1.45,1.45,0,0,0,.74,0C202.65,145.25,203,144.82,203,144.42Z"/><path d="M257.31,100.83h0a.18.18,0,0,1-.1-.07,0,0,0,0,1,0,0l.36-.13.05.16,0-.16.71-.25h0l1.08-.38c-.22-.53-.87-.82-1.78-.8h-.21l-6,1.77,5.84-.11Z"/><path d="M256.57,78.73l3.14-2.84-4.64,2.17L255,78l-.07,0h0l-.83.48-.13.08-.14.07h0l-1,.59,1.12.35-.08.08h0a.8.8,0,0,0,.16.08,0,0,0,0,0,0,0h0l.08.43.13,0h0l.1,0h.17l.33-.15,3.74,0Z"/><path d="M98.8,128.11h0l-1.6.44a.26.26,0,0,1,0,.07h0a.14.14,0,0,1,0-.07l3.08.29h0a1.83,1.83,0,0,0,.13-.92h0a1.18,1.18,0,0,0,0-.2l-1.59.44Z"/><path d="M110.81,107.54h0l-1.55-.06h0a.4.4,0,0,1-.12,0l.32,1.1h0l-.34-1.09.56,2.22.11,0-.34-1.1h0l.33,1.1a3.67,3.67,0,0,0,2.59-2.12l-1.57-.06Z"/><path d="M5.71,154.37h0l-.51,0-1-.13-.16.2-.18.25-.15.22h0l2.92.6h0l.15-.2a3.7,3.7,0,0,0,.44-.67l0-.07-1.54-.15Z"/><path d="M141.38,182.6l1.56-.55a2.5,2.5,0,0,0-2.05-1.42L139.63,183h0c.05,0,.11,0,.16.16h0l1.56-.54Z"/><path d="M180.92,141.16h0l1.23.57-1.23-.58,0,0,1.25.57.13-.13h0a2.13,2.13,0,0,0,.21-.22h0l-2.66-.95h0l-.15.15h0l0,0-.05,0,1.23.59Z"/><path d="M110.71,191.19l.45,1.05a3.17,3.17,0,0,0,2.24-2.48v-.21a2.11,2.11,0,0,0-1-1.6l-2.34,2h0l0,0a.34.34,0,0,1,.09.18l0,.11h0l.06,0v.05h0l.1,0,.43,1h0Z"/><polygon points="74.03 152.93 74.03 152.92 74.03 152.92 74.98 151.84 74.98 151.84 74.98 151.84 73.86 151.42 71.96 153.59 72.45 153.78 72.45 153.78 73.08 154.01 74.03 152.93 74.03 152.93"/><path d="M123.45,164.09h0l-1.48-.26,0,0-.07.12a.2.2,0,0,1,0,.08h0l3,.35,0-.07-1.48-.27Z"/><path d="M202.18,136.32l.16.21a3.06,3.06,0,0,0,2.12.94l.91-2.38h0a.14.14,0,0,1-.08,0,.69.69,0,0,1-.2-.19l-2.9,1.46Z"/><path d="M164.8,224.71h0l1-1-1,1,.24.1,2.09-2.09h0l-.55-.25-2.1,2.08.29.14Z"/><path d="M52.67,272.3c0-.1,0-.22.06-.34l.05-.23h0l-3.22.16h0l0,.2a4.72,4.72,0,0,0-.1.81.15.15,0,0,0,0,.07h0l3.25-.49A1.21,1.21,0,0,1,52.67,272.3Z"/><path d="M83.68,263.7l1,.06c.22,0,.47,0,.73,0H86l.23-1.19h0l.08-.41h0l-.47-.07.53-.23.09-.49a7.71,7.71,0,0,1-.81,0l-.31,0h0l-.24.66-1.76-.25a1.38,1.38,0,0,0,.08,1.45Z"/><path d="M57.84,115.85l.15,0,.07.22.34-.13-.12-.18,2.43-.8c-.36-1-1.56-1.43-3.07-1.15l-.3.06-.26.13.52.77Z"/><path d="M242.93,182.36l.13-.08.43.46-.81.32a.36.36,0,0,1,0-.11V183a1.25,1.25,0,0,0,0,.29h0l1-.31.14.15h0l.86.88a5.11,5.11,0,0,0,.52-.38l.83-.57-.2-.68v-.07l0-.2h0a1.3,1.3,0,0,0-.1-.27l-1.53.61h0l-.28.12-.63-.5h0l-.3.23-.06.05h0Z"/><path d="M203,38.51l-.08.44h0l.4.26.24-.15c.17-.09.33-.19.49-.29h0l-.55-.45.3-.12h0l1.54-.59a1.24,1.24,0,0,0-.45-.49h0a2.77,2.77,0,0,0-1.59-.33l-.64,0-.52.35-.22.13a5.47,5.47,0,0,0-.76.5l1.37.89Z"/><path d="M285.07,81.58a3.39,3.39,0,0,0,.31.34l2.68-1.71h0c-.06,0-.1-.11-.15-.16l0,0-.05-.06-.09-.09-.05-.06,0,0,0,0a2.61,2.61,0,0,0-.33-.27L284.9,81.4l.16.17Z"/><path d="M263.44,105.83a1.36,1.36,0,0,1,1.42.83,1.15,1.15,0,0,1,0,.64s0,0,0,0h0l3,.49a2.67,2.67,0,0,0,.19-2.2l-.06-.14a3.77,3.77,0,0,0-2.59-1.93h0a5.72,5.72,0,0,0-1.77-.07l-.08,1.18h0l-.08,1.18Z"/><path d="M285.65,158.85l1.71-2.24h0l-.17-.06c-1-.41-1.45-1.57-2.49-4.85l-.2-.61L284,151l-3.55-1.93.51,1.72h-.08l.59,1.84C282.71,156.42,283.26,158.13,285.65,158.85Z"/><path d="M24.42,124.32h0a1.2,1.2,0,0,1,.11-.17c.07-.12.17-.26.25-.41h0s0,0,0,0,.08-.17.12-.25l-1.14-.07,1.15,0-1.57-.06h0l-1.53-.1h0l-.11.17-.26.41h0Z"/><path d="M97.91,143.19a.64.64,0,0,1,0,.07h0l3.16-1a2.22,2.22,0,0,0-.73-1l-2.55,1.82,0,0A.48.48,0,0,1,97.91,143.19Z"/><path d="M205.59,137.13h0l.08-.12.05,0,2.14,1.45.11-.09,0,0a2.09,2.09,0,0,0,.63-2.53h0l-1.55.56h0l-1.56.56a.51.51,0,0,1,.06.26Z"/><polygon points="255.07 184.27 253.87 184.16 254.02 183.98 253.87 184.16 253.54 184.13 253.54 184.13 253.54 184.13 252 183.98 251.19 185.85 253.99 186.78 255.07 184.27"/><path d="M152.66,187.16v0l.53.55-.06,0h0l.38-.14h0l-.34-.58,2-.44,0-.14h0a.24.24,0,0,1,0-.08h0a1.2,1.2,0,0,0-.28-.41h0a2.23,2.23,0,0,0-1.28-.5l-.63-.05-.58.24-.18.07h0l-.17.06h0l-.26.13,1,1.23Z"/><path d="M262,59.63h0l.25-.1a2.9,2.9,0,0,0,1.68-1.83h0c0-.07,0-.14,0-.21h0l-2.92.15h0Z"/><path d="M101.25,76.38a.37.37,0,0,1-.06.1.78.78,0,0,1-.24.17l1.42,1.89h0l.13-.06h0a3.81,3.81,0,0,0,1.85-1.88l-1.56-.11,1.56.11a2.51,2.51,0,0,0,.16-.72l-3.23.35A.75.75,0,0,1,101.25,76.38Z"/><path d="M145.2,108.23h0l-.14.17-.05.06-.12.15,0,0,1.38.42h0l1.38.41.11-.13.11-.14a2.34,2.34,0,0,0,.2-.27h0Z"/><path d="M109.3,169.31h0s0,0,0,0l-.22.15-.08.06-.25.19-.15.12,2.23,1.37h0a2.49,2.49,0,0,1,.24-.17,5.24,5.24,0,0,0,.61-.49h0l.14-.14h0l-2.52-1.11Z"/><path d="M96.43,149.54l0,1.17-.08-1.16-.22,0-.18,0,.29,1.11-.34-1.1.32,1.11h0l.21.69h0l0,.42v-.31l0,.31,0-.29h0l0,0h0l.07.25,0-.15,0,.15-.09-.3v-.13l1.89-1.57A2.83,2.83,0,0,0,96.43,149.54Z"/><path d="M128,174.4a3.36,3.36,0,0,0-.58-.48l-2.34,2s.1.1.16.16a3.92,3.92,0,0,0,.37.34h0l0,0,.13.55h0L126,178l.1,0a3.35,3.35,0,0,0,2-1.48,2.41,2.41,0,0,0,.32-1.31v-.38l-.33-.26A.81.81,0,0,1,128,174.4Z"/><path d="M145,232.11h0a3.11,3.11,0,0,0-3.07-1.25l-.38,2.38h.07a.55.55,0,0,1,.18,0c.16.06.32.25.44.84a.69.69,0,0,1-.11.36l0,0,2.39,1.23h0a3.4,3.4,0,0,0,.32-.34,3,3,0,0,0,.63-1.7v-.19a3.57,3.57,0,0,0-.48-1.31Z"/><path d="M127.84,207.31h0a2,2,0,0,1-.24.16c-.19.12-.41.26-.63.43h0l-.15.12h0l2.32,1.29.25-.15c.18-.11.35-.23.5-.34h0Z"/><path d="M248.38,185.64H248a6.29,6.29,0,0,0-.82.08l0,.71-.17-.06-.37.47.13.45.43-.12,0,.88c.13,0,.34,0,.55,0l2.64-.07-.33-1.14,1-1.26-2.49.08Z"/><path d="M184.51,77.2h0a2.8,2.8,0,0,0,.51-1.48l0-.18a2.75,2.75,0,0,0-2.57-2.17h0l-1.21,2.36h.12a.65.65,0,0,1,.46.5c0,.15-.06.22-.05.22l.31,1.11h0l-.33-1.11.3,1.12h0l.29,1.1h.06l-.32-1.1h0l.36,1.08h0a3.9,3.9,0,0,0,2.12-1.43Z"/><path d="M257.69,194l-.21,0c-.07,0-.13-.06-.2-.18a.16.16,0,0,1,0-.07l-3,1.27h0a.36.36,0,0,0,0,.09c.88,1.44,2.63,1.36,3.6,1.18l.22,0,.21-.08.34-.14.34-.17h0l-1.24-1.48Z"/><path d="M229.1,96.08h0l.07-.08,0,0h0a.68.68,0,0,1,.21-.11h0l.06.38-.35.1.35-.1.3,1.9.17,0,.09,0h0a3,3,0,0,0,2.29-2.31l0-.18-2.14-7.29L229.12,96A.14.14,0,0,1,229.1,96.08Z"/><path d="M229.22,137.19l-.25.06.4,2.25c.36-.06.38,0,.46.12l3-1.22C232.32,137.33,231,136.88,229.22,137.19Z"/><path d="M219.65,169.07h0c-.52-.91-1.89-1.22-3.48-.68l-.3.1-.38.26a.18.18,0,0,1-.07,0c-.12.09-.23.19-.33.28l1.75,1,.09.2.17-.06.33.18h0l0,0a.18.18,0,0,1,.07-.05l-.23-.18h0l.22.17-.08-.07.09.06-.21-.17,2.39-.83h0A.76.76,0,0,0,219.65,169.07Z"/><path d="M225.13,136.75h0l-.31.67-1.72-.34,0,0a2,2,0,0,0-.16.41,1.42,1.42,0,0,0,.16,1l.25.48,2,.23,1.09-2.37-1.31-.15Zm1,.55a.31.31,0,0,1,0,.14.74.74,0,0,1-.07.21l-.54-.1Z"/><path d="M19.18,79.56a2.46,2.46,0,0,0-2.08-.76L16.88,80,17,78.8,16.84,80h0L17,78.8a5,5,0,0,0-.9.15l-.08,0,.3,1.1L16,79l.33,1.11h0L16,79l-.29.1.48,1h0l.46,1v0a.5.5,0,0,1-.18,0,.32.32,0,0,1-.11,0h0a1.53,1.53,0,0,1,.26.42c0,.11,0,.16,0,.16h0a.26.26,0,0,1,0-.09s0,.06,0,.08h0l.21-.08,2.16,1.2h0a2.14,2.14,0,0,0,.6-.81h0a2.71,2.71,0,0,0,.19-1.15v-.16l-.06-.14A3.32,3.32,0,0,0,19.18,79.56Z"/><path d="M26.74,131.11l.69,4.06a.32.32,0,0,1,0,.15h0l.05-.07.07-.06,0,0,.3.39L29,137.07h0l.25-.14a2.46,2.46,0,0,0,1.38-2.51v0l-.09-.3Z"/><path d="M3.14,88.38a4.65,4.65,0,0,0-.5-.25l-.19-.07h0L1,89.83h0l0,0,0,0-.11,0H1l-.32.4.21.11a3.58,3.58,0,0,0,.48.24h0l.24-.25,1.12,1.2A2.25,2.25,0,0,0,4,89.18l-.09-.48-.53-.21Z"/><path d="M74.6,65h-.07l-1.07,1h0l-.13.12-.46-.56h0a3.6,3.6,0,0,0-.37.22h0l-.08,0h0l.11-.06h0l.42.71-.3.28.39-.11.08.13h0l.6,1,.23-.11h0a0,0,0,0,1,0,0h0l.22-.13h0l.12-.07,1.12-.59L75.22,66V66a1.2,1.2,0,0,0-.61-1Z"/><path d="M93.26,162.15h0L92.7,162a1.25,1.25,0,0,1,.19-.18h0l-.25.13-.36.2h-.47L90.26,162l0,.12s0,0,0,.07a1.47,1.47,0,0,0,.92,1.74h0a3.62,3.62,0,0,0,1.54.29h.67l.57-.37a2.8,2.8,0,0,1,.25-.14,3.72,3.72,0,0,0,1.22-.88Z"/><path d="M57.79,212.45l-.79,1,.75-1a3,3,0,0,0-1-.14l-.54,2.1-.21.27a.74.74,0,0,1,.23.22.28.28,0,0,1,0,.12h0l0-.05,0,.05h0l.11-.05,1.81,1.56.14-.1a3.4,3.4,0,0,0,.4-.34h0v0h0a2.18,2.18,0,0,0,.57-.93h0v0h0a2.17,2.17,0,0,0,0-1.26l-.12-.22A2.87,2.87,0,0,0,57.79,212.45Z"/><path d="M46.18,141.19c0,.08,0,.15,0,.24h0l3.24-.55a3.93,3.93,0,0,0-.06-.48l0-.12h0l-3.2.84A.64.64,0,0,0,46.18,141.19Z"/><path d="M78.32,161.12h0l-.18-.13a3,3,0,0,0-.37-.25h0a1.45,1.45,0,0,0-.33-.16l-2,2.13.18.13a3.05,3.05,0,0,0,.32.22l.08.06h0l1.15-1h0l1.14-1Z"/><path d="M30.86,107h0a3,3,0,0,0-1.95-.63l-.34,1.2h0l-.34,1.19c.16.07.33.54.44.86a.9.9,0,0,1-.08.59h0l1.76,1.71.11-.08a3,3,0,0,0,1.43-3l0-.11,0-.08A3.67,3.67,0,0,0,30.86,107Z"/><path d="M77.15,222.48H76a9.79,9.79,0,0,0-1.28.05l-.06,1.17h0l0,.46h.25l-.25.11,0,.62c.17,0,.43,0,.69,0h.37l.21-.76,1.8-.05h0s0,0,0,0h0a1.52,1.52,0,0,0-.18-1Z"/><path d="M71.6,166.73h0l-.22-.12a2.94,2.94,0,0,0-.31-.16h0a2.46,2.46,0,0,0-.36-.14l-.07,0-.85,1.12.78-1.14-1.15,1.62-.51.64.17.08,0,0a.47.47,0,0,1,.12.07l.37.18,1-1.07h0l1-1.07Z"/><path d="M129.45,119h0a4,4,0,0,0-1.84-.23l-.83.07-.54.53a2.13,2.13,0,0,1-.22.18c-.13.11-.27.22-.42.36h0l-.25.26h0v0l0,0,2,.69v0l0,0h0l0,0h.09l.57.19.21-.18.14-.12.57-.06h0l1.61-.17a1.71,1.71,0,0,0,0-.32.53.53,0,0,0,0-.12,0,0,0,0,0,0,0h0a1.59,1.59,0,0,0-1-1.14Z"/><path d="M123.2,42.78l-10.16,3,8.72-.66h.07s0,0,0,0h0l-.08,0h0a.32.32,0,0,1-.19-.19h0l.15,0,.46-.08,2.63-.48a.22.22,0,0,0,0-.08.49.49,0,0,0,0-.12A1.77,1.77,0,0,0,123.2,42.78Z"/><path d="M174.39,210.94c0,.07-.07.13-.1.2a5.4,5.4,0,0,0-.26.55l1,.06-.38.28.38-.28,2.13.13h0s0,0,0,0,.09-.18.14-.28.1-.19.14-.28l.32-.66-2.36-1.83Z"/><path d="M173.28,203.38l.41.75h0l.57,1h0a2.72,2.72,0,0,0,.35-.16,2.06,2.06,0,0,0,1.23-2.22h0s0,0,0-.05h0l-2.55.68Z"/><path d="M196.3,155.31l0,1.51a1.48,1.48,0,0,1,0,.21,2.63,2.63,0,0,0,0,.83v0l1.26-.34h0l-1.26.34v.05l1.23-.35-.07.2.07-.2.36-.11h0l1.59-.45-1.59.43h0l1.59-.43s0,0,0,0h0c0-.08,0-.2,0-.32l0-.28,0-.81-1-.15Z"/><path d="M85,80.12l-.08,0,.08,0L83.61,81h0L85,80.12l-1.19.75L85,80.11,83.6,81h0l1.33-.87-1.15.74,1.15-.74-.07,0,.07,0L83.59,81h0l1.33-.87-1.19.78,1.18-.79L83.59,81l1.3-.88L83.57,81h0l1.31-.89L83.57,81h0l1.32-.89-1.18.8,1.14-.8h0l-1.32.9h0l1.32-.9a3.27,3.27,0,0,0-3-.4l-.4.13-.24.1L81,80c-1.18.78-1.42,1.58-1.4,2.1l2.81-.44,0,0-.15.1h0l.15-.1h0l.11-.08h0l-.15.1,0,0h0l.12-.08h0l-.27.18h0l.14-.09,0,0,.06,0h0l.15-.09h0l-.15.11h0l-.09.05.09-.05h0l.17-.11h0l.21,0a0,0,0,0,1,0,0,.24.24,0,0,1,0,.07h0a.38.38,0,0,1,.09-.08h0l-.11-.08h0l.89-.53L85,80.13,83.63,81Z"/><polygon points="283.49 172.43 282.69 171.71 280.03 173.43 280.03 173.43 280.03 173.43 280.83 174.15 283.49 172.43 283.49 172.43 283.49 172.43"/><path d="M278.55,160l.29-.15L277.27,158l-.17.09a1.71,1.71,0,0,0-.27.14l1.55,1.83h0Z"/><path d="M161.5,197.16l-3.2.8a.45.45,0,0,1,0,.2h0a.42.42,0,0,1,.09-.13l0,0,2.36,1.26a2.18,2.18,0,0,0,.76-1.71,1.72,1.72,0,0,0,0-.39Z"/><polygon points="273.84 144.2 273.82 144.19 273.8 144.2 273.11 143.74 272.25 144.93 271.12 145.48 271.67 146.43 272.35 147.47 272.96 147.18 273.13 147.3 274.29 146.65 275.77 145.56 275.34 145.25 277.06 142.67 273.84 144.2"/><path d="M131.67,236.49s0,0,0,0l0,0,0,0h0l-2.2,1.5-.41.08h0a.41.41,0,0,1,0,.12h0A.33.33,0,0,1,129,238h0l.05.08h0l-.11.07h0a.44.44,0,0,1,.08.11h0l.11,0h0l1.18,1.7a5.87,5.87,0,0,0,.56-.31h0a2.43,2.43,0,0,0,1.25-2.3v-.16l-.09-.15A2.2,2.2,0,0,0,131.67,236.49Z"/><path d="M12.5,108.57,8.05,104l1.32,5.66a.82.82,0,0,1,0,.16h0a.42.42,0,0,1,.15-.2l0,0a.1.1,0,0,1,0,0l.32.29-.35.21.35-.21.6.53v0l.94.83.3-.23a2.09,2.09,0,0,0,.79-2.16h0s0,0,0,0Z"/><path d="M51.3,99.61a.22.22,0,0,1-.1-.11l-3.05,1.23a2.35,2.35,0,0,0,1.67,1.18l1.49-2.3h0Z"/><path d="M47.74,127.82l-1.57.5h0l-1.58.5a.41.41,0,0,1,0,.17h0a.37.37,0,0,1,.07-.1l.06,0,1.86,1.65a2.27,2.27,0,0,0,1.14-2.67Z"/><path d="M32.34,163.93l-.13-.05-.9,1.11h0l.9-1.11-.2-.06h0a2.8,2.8,0,0,0-1.22,0l-.13,0-.47.16.79,1.39h0l0,0-.56.7.39-.46.16-.18h0l0,0v.09l.18.56-.06-.29-.06-.16.06.16,0-.12.21.37-.27-.66Z"/><path d="M100.58,246.69a2.37,2.37,0,0,0,2.16,1.53l1.1-2.36a.32.32,0,0,1-.1-.16Z"/><path d="M59.79,157.44l.26-.31-.26.31-2.13.3h0v.06s0,0,0,0l0,.13c0,.13-.06.26-.08.39l-.08.59.58.31,2.47.84.26-2a1.18,1.18,0,0,1,0-.2l0-.17a.32.32,0,0,0,0-.09,2.4,2.4,0,0,0,0-.37l-.84.13Z"/><path d="M7.38,252.24a2,2,0,0,0-.56-.74h0a0,0,0,0,1,0,0H6.56l-.06,0H6.44l0,0h0l-.06,0H6.27s0,0,0,0l-.89,1.12h0l-.58.73H4.64l.13,0h0l-.12,0h0l.13,0-.28.34h0l0,0h0a.56.56,0,0,1-.23-.13h0a.59.59,0,0,1,.11.19c.07.13.15.27.23.39h0l1-.5.26.09h0l1.37.43a2.18,2.18,0,0,0,.36-.62l.18-.46-.27-.36Z"/><path d="M2.61,241.48h0a.51.51,0,0,1,.09.22c0,.06,0,.09,0,.11h0s0,0,0,0v0h0l.12,0,.23,1.06h0L3.32,244l.15,0a4.6,4.6,0,0,0,.52-.19h.09a4,4,0,0,0,1-.63h0a0,0,0,0,1,0,0h0A2.64,2.64,0,0,0,6,241.24v-.16a2,2,0,0,0-1-1.57Z"/><path d="M225.73,112.75l-1.88,2.18h0a.38.38,0,0,1,.08.07c0,.13,0,.29-.12.34l-.1,0,.73,2.18c.19-.06.37-.13.54-.2,1.6-.68,2.41-1.94,2.13-3.28l0-.12-.06-.1A2.44,2.44,0,0,0,225.73,112.75Z"/><path d="M235,218.2h0a4.31,4.31,0,0,0-1.95.14l-.71.2-.37.5a1.29,1.29,0,0,1-.16.18l-.28.32h0l-.12.16h0l2.09.55.08,0,0,.05.63.17.15-.17a4.5,4.5,0,0,0,.37-.43h0l-.11,0,.23-.09h0l1.53-.59v0A1.86,1.86,0,0,0,235,218.2Z"/><path d="M117.51,149.53a2,2,0,0,0,.58-2h0a.36.36,0,0,0,0-.11h0l-1.37.44,1.36-.45-3,.95h0l0,0,0,0h0Z"/><path d="M96.66,134l1,1.93h0l2.17-2A3.75,3.75,0,0,0,96.66,134Z"/><path d="M58.78,275.05h-.31l-.82-1.17,0,0-.15-.19-2.77,1.5h-.12l.52.91Z"/><path d="M46.92,181.85l-1,2.37H46a3.58,3.58,0,0,1,3,2.61A3.54,3.54,0,0,1,49,189c0,.11-.07.23-.11.35h0l3.15.11a5.45,5.45,0,0,0,.12-3.57A5.79,5.79,0,0,0,46.92,181.85Z"/><path d="M151.88,193.28h0a1.29,1.29,0,0,0,.21-1h0s0,0,0,0h0v0A1.28,1.28,0,0,0,152,192l-1.54.61,1.53-.63-1.53.62h0l-.67.27h0l-.31.12h0l-.19.07-.38.16.59-.24.32-.09,2,.43Z"/><polygon points="124.58 214.56 126.16 214.12 126.26 215.19 126.36 215.17 126.18 214.11 126.38 214.05 127.69 214.19 128.54 212.3 124.22 213.32 124.58 214.56"/><path d="M102.14,118.47l-.26,0a7.72,7.72,0,0,0-1.16-.08l-.57,2.39h.19l.43,0h0l.3,0h0l1.07-2.37h0Z"/><path d="M15.16,212.29l-1.34.83,1.34-.84-1.36.85h0l1.35-.84a2.18,2.18,0,0,0-.42-.33h0a3.6,3.6,0,0,0-3.15-.07l-.28.1-.22.16a2.7,2.7,0,0,0-1.35,2h0a1.17,1.17,0,0,0,0,.41l1.6-.43h0l1.16-.31.05.08-.09.05-.09,0h0l0,0,0,0h0l.35-.22h0l-.28.18h0l.33-.2H13a.13.13,0,0,1,0,.1h0l.11-.09h0l0,0h0l.86-.5Z"/><path d="M210.59,94.54a4.46,4.46,0,0,0-2-1.36h0a5,5,0,0,0-3,0h0a6.09,6.09,0,0,0-.78.28l.56,1h0l.55,1,.32-.11c.27-.07.72-.15,1.41.6a.42.42,0,0,1,0,.19h0l2.9.62h0c.05-.08.09-.16.13-.24h0a2.16,2.16,0,0,0,0-1.71l-.05-.13Z"/><path d="M28.66,216.32h0a1.3,1.3,0,0,1-.11.19,3,3,0,0,0-.33.67l3.14.11a.41.41,0,0,1,.05-.09h0l.06-.1c.1-.16.18-.31.25-.45h0Z"/><path d="M197.45,203.22h0c0-.11,0-.24,0-.38l0-.2h0l-1,.1.34-1.17h0l-.49,0-1.92.07-.14,1.48c0,.12,0,.25,0,.39h0a3.09,3.09,0,0,0,0,.43l1.5-.27-.07.28h.07l.2,0h.21l.1-.35,1.23-.23A.71.71,0,0,1,197.45,203.22Z"/><path d="M147.25,94.61l.21-.11-.06-.08-.17.09h0l.17-.09a1.8,1.8,0,0,0-.93-.6h-.05a0,0,0,0,1,0,0h-.08a2.81,2.81,0,0,0-.59-.06,3.94,3.94,0,0,0-1.78.5l-.81.44,0,.67a1.48,1.48,0,0,1,0,.19,2.27,2.27,0,0,0-.06.71v0l1.44-.32h0a1.36,1.36,0,0,0,.3.13.61.61,0,0,1-.25-.14l.44-.09-.17.23h.06l.16-.26.28,0,.23.26-.09,0a1.12,1.12,0,0,1-.41,0l-.14,0a2.18,2.18,0,0,0,1.07,0C146.78,95.81,147.32,95.18,147.25,94.61Z"/><path d="M225.53,31.81h0a.23.23,0,0,1-.14-.1.05.05,0,0,0,0,0l.54-.19.07.23-.07-.23,1-.36h0l1.56-.54c-.31-.77-1.25-1.19-2.56-1.16h-.3L216.94,32l8.42-.16C225.48,31.8,225.53,31.82,225.53,31.81Z"/></mask></defs><title>sold</title><g mask="url(#mask)"><path d="M253.94,67.93,10.4,139.3a1.38,1.38,0,0,0-.93,1.7l22.9,78.14a1.37,1.37,0,0,0,1.7.93L277.6,148.7a1.38,1.38,0,0,0,.93-1.7l-22.9-78.14A1.37,1.37,0,0,0,253.94,67.93Zm21,78.19L35,216.44,13.1,141.88l240-70.32ZM251.29,58.9,7.75,130.27A10.77,10.77,0,0,0,.44,143.64l22.9,78.15a10.78,10.78,0,0,0,13.37,7.31l243.54-71.37a10.77,10.77,0,0,0,7.31-13.37l-22.9-78.15A10.78,10.78,0,0,0,251.29,58.9Zm29,87.6a3.16,3.16,0,0,1-2.14,3.92L34.57,221.79a3.16,3.16,0,0,1-3.92-2.14L7.75,141.5a3.16,3.16,0,0,1,2.14-3.92L253.43,66.21a3.16,3.16,0,0,1,3.92,2.14Z" fill="#ff4545"/><path d="M79.62,136,84,150.82l-8.84,2.59a8.24,8.24,0,0,0-3.46-3.3,5.81,5.81,0,0,0-4.45-.57,2.9,2.9,0,0,0-1.79,1.24,2.65,2.65,0,0,0-.14,2.2,2,2,0,0,0,1.14,1.29,6.24,6.24,0,0,0,2.24.54c.89.07,1.91.1,3,.09s2.34,0,3.62.08,2.57.18,3.88.34a15.73,15.73,0,0,1,3.92,1.05,16.48,16.48,0,0,1,3.66,2A13.49,13.49,0,0,1,90,161.89a20.09,20.09,0,0,1,2.42,5.19,16.62,16.62,0,0,1,.74,6,17.32,17.32,0,0,1-1.31,5.76,13.79,13.79,0,0,1-3.39,4.76,13,13,0,0,1-5.28,3,14.93,14.93,0,0,1-5.39.72,15.83,15.83,0,0,1-5.1-1.43l-.26,2.95-9.3,2.73-4.37-14.91L68,173.91a8.87,8.87,0,0,0,3.76,2.92,6.56,6.56,0,0,0,4.5.41,4,4,0,0,0,2-1.29,2.2,2.2,0,0,0,.4-2.1,2.5,2.5,0,0,0-1.13-1.5,4.12,4.12,0,0,0-1.65-.63,14.5,14.5,0,0,0-2-.08c-1.22,0-2.31,0-3.25,0s-2-.08-3.06-.18a25.68,25.68,0,0,1-2.92-.41,22.54,22.54,0,0,1-2.67-.74,13.17,13.17,0,0,1-2.48-1.11,15.2,15.2,0,0,1-2.19-1.6,12.28,12.28,0,0,1-1.94-2.13,19.55,19.55,0,0,1-1.6-2.75,22.89,22.89,0,0,1-1.31-3.46q-2-6.85.15-11.9t8.59-6.92a15.07,15.07,0,0,1,9.74,0,15.63,15.63,0,0,1,.41-2Z" fill="#ff4545"/><path d="M141.58,143.29a25.71,25.71,0,0,1,.5,13.2,23.38,23.38,0,0,1-6,11.15,25.53,25.53,0,0,1-24,7,23.44,23.44,0,0,1-11-6.17,25.71,25.71,0,0,1-6.7-11.39,27.37,27.37,0,0,1-.71-13.9,21.76,21.76,0,0,1,5.93-10.92,26.19,26.19,0,0,1,11.32-6.44,25.88,25.88,0,0,1,12.89-.65,21.75,21.75,0,0,1,10.88,6A27.44,27.44,0,0,1,141.58,143.29Zm-19.49,21a5.45,5.45,0,0,0,1.91-1,4.73,4.73,0,0,0,1.21-1.48,7.21,7.21,0,0,0,.62-1.87,9.57,9.57,0,0,0,.15-2.16c0-.75-.1-1.52-.2-2.3a23.16,23.16,0,0,0-.45-2.32c-.19-.77-.39-1.52-.58-2.25s-.4-1.43-.61-2.07c-.11-.39-.2-.68-.25-.87s-.16-.55-.3-1c-.22-.68-.43-1.41-.64-2.18a18.63,18.63,0,0,0-.8-2.35c-.32-.79-.66-1.55-1-2.28a9.25,9.25,0,0,0-1.29-2,8.65,8.65,0,0,0-1.61-1.5,4.31,4.31,0,0,0-2-.74,5.63,5.63,0,0,0-2.41.22,6.08,6.08,0,0,0-1.93.93,4.54,4.54,0,0,0-1.23,1.41,7.36,7.36,0,0,0-.65,1.76,6.94,6.94,0,0,0-.2,2c0,.69.08,1.4.16,2.14a14.18,14.18,0,0,0,.4,2.16c.18.71.36,1.4.53,2.08s.36,1.31.57,1.9.23.79.3,1,.14.48.25.87c.19.57.36,1.17.53,1.81s.37,1.29.62,2,.5,1.33.76,2a14.25,14.25,0,0,0,.88,1.9c.34.61.68,1.18,1,1.7a7.72,7.72,0,0,0,1.22,1.38,6.08,6.08,0,0,0,1.42,1,4.33,4.33,0,0,0,1.67.42A5.47,5.47,0,0,0,122.09,164.28Z" fill="#ff4545"/><path d="M171.11,148.67l5.5-1.61-.45-10.81,8.23-2.42,6,20.41L153.72,165l-3.05-10.33,4.11-1.21-7.68-26.22-4.23,1.24-3-10.14,25-7.32,3,10.13-4.43,1.3Z" fill="#ff4545"/><path d="M192.76,142.32l4.7-1.37-7.7-26.26-4.86,1.43-3-10.14,23.89-7q11.87-3.48,19.5.71t11,15.59a26.12,26.12,0,0,1,1,9.36,24.21,24.21,0,0,1-2.36,8.8,21.61,21.61,0,0,1-6.14,7.44,28.45,28.45,0,0,1-9.94,5l-23.09,6.77ZM214.21,136a8.3,8.3,0,0,0,3.46-1.91,7.52,7.52,0,0,0,1.93-2.85,11.2,11.2,0,0,0,.65-3.53A19.29,19.29,0,0,0,220,124a31.69,31.69,0,0,0-.85-3.72c-.39-1.32-.81-2.52-1.24-3.59a20.25,20.25,0,0,0-1.73-3.26,10.53,10.53,0,0,0-2.32-2.65,7.16,7.16,0,0,0-3.08-1.35,8.25,8.25,0,0,0-4,.27l-1.35.4,7.69,26.25Z" fill="#ff4545"/></g></svg>